<?xml version="1.0" encoding="UTF-8"?>
<!DOCTYPE svg PUBLIC "-//W3C//DTD SVG 1.1//EN" "http://www.w3.org/Graphics/SVG/1.1/DTD/svg11.dtd">
<!-- Creator: CorelDRAW X7 -->
<svg xmlns="http://www.w3.org/2000/svg" xml:space="preserve" width="297mm" height="210mm" version="1.1" style="shape-rendering:geometricPrecision; text-rendering:geometricPrecision; image-rendering:optimizeQuality; fill-rule:evenodd; clip-rule:evenodd"
viewBox="0 0 29700 21000"
 xmlns:xlink="http://www.w3.org/1999/xlink">
 <defs>
  <style type="text/css">
   <![CDATA[
    .fil1 {fill:#4B4B4D}
    .fil0 {fill:#057CB8}
   ]]>
  </style>
 </defs>
 <g id="Layer_x0020_1">
  <metadata id="CorelCorpID_0Corel-Layer"/>
  <g id="_2517774046096">
   <g>
    <g>
     <path class="fil0" d="M1824 10515c0,-21 1,-42 1,-64 -69,-274 -461,-1063 -551,-1219 -92,-159 -252,-417 -357,-564 -131,-183 -288,-328 -414,-509l0 -184c31,-36 44,-82 103,-82 212,0 1013,1511 1232,2189 117,-1888 955,-3589 2252,-4845 1400,-1356 3334,-2194 5469,-2194 1402,0 2344,255 3528,935l0 113c-1180,-689 -2123,-950 -3528,-950 -2109,0 -4019,828 -5401,2166 -1376,1334 -2230,3175 -2236,5208l-98 0zm9351 -7636l0 0c1031,444 1057,-93 1896,-791 -371,-248 -1618,-1 -1896,791zm-698 473l0 0c56,766 1098,1280 1485,1150 -574,-816 -470,-1297 -1485,-1150zm-612 -653l0 0c134,-864 1364,-1354 1791,-1170 -726,873 -651,1429 -1791,1170zm-1329 48l0 0c1221,78 1051,-483 1656,-1506 -472,-119 -1661,592 -1656,1506zm130 621l0 0c217,930 1598,1363 2048,1127 -863,-892 -827,-1504 -2048,-1127zm-1606 -245l0 0c1293,-136 1015,-694 1467,-1874 -515,-40 -1635,916 -1467,1874zm-1095 540l0 0c1119,-662 634,-1054 553,-2315 -485,178 -1105,1514 -553,2315zm1016 94l0 0c350,897 1789,1131 2205,832 -989,-766 -1041,-1382 -2205,-832zm-2099 699l0 0c954,-883 397,-1164 52,-2380 -437,277 -761,1713 -52,2380zm432 258l0 0c596,700 1968,463 2249,63 -1131,-383 -1369,-922 -2249,-63zm-1597 598l0 0c955,-883 397,-1164 53,-2379 -437,276 -761,1712 -53,2379zm61 894l0 0c864,473 2145,-289 2275,-797 -1279,49 -1724,-399 -2275,797zm-856 333l0 0c755,-1168 104,-1311 -574,-2479 -380,402 -336,1975 574,2479zm-654 1259l0 0c500,-1265 -152,-1277 -1027,-2268 -287,459 57,1960 1027,2268zm360 335l0 0c1061,219 2164,-995 2136,-1571 -1329,464 -1941,135 -2136,1571z"/>
     <path class="fil0" d="M11948 3441c1023,-297 985,212 1692,967 -354,178 -1381,-143 -1648,-825 -33,-111 -23,-20 -44,-142z"/>
    </g>
    <g>
     <path class="fil0" d="M1824 10485c0,21 1,42 1,64 -69,274 -461,1063 -551,1219 -92,159 -252,417 -357,565 -131,182 -288,327 -414,508l0 184c31,36 44,82 103,82 212,0 1013,-1511 1232,-2189 117,1888 955,3589 2252,4845 1400,1356 3334,2194 5469,2194 1402,0 2344,-255 3528,-935l0 -113c-1180,689 -2123,950 -3528,950 -2109,0 -4019,-828 -5401,-2166 -1376,-1334 -2230,-3175 -2236,-5208l-98 0zm9351 7636l0 0c1031,-444 1057,93 1896,791 -371,248 -1618,1 -1896,-791zm-698 -473l0 0c56,-766 1098,-1280 1485,-1150 -574,816 -470,1297 -1485,1150zm-612 653l0 0c134,864 1364,1354 1791,1170 -726,-873 -651,-1429 -1791,-1170zm-1329 -48l0 0c1221,-78 1051,483 1656,1506 -472,119 -1661,-592 -1656,-1506zm130 -621l0 0c217,-930 1598,-1363 2048,-1127 -863,892 -827,1504 -2048,1127zm-1606 245l0 0c1293,136 1015,694 1467,1874 -515,40 -1635,-916 -1467,-1874zm-1095 -540l0 0c1119,662 634,1054 553,2315 -485,-178 -1105,-1514 -553,-2315zm1016 -94l0 0c350,-897 1789,-1131 2205,-832 -989,766 -1041,1382 -2205,832zm-2099 -699l0 0c954,884 397,1164 52,2380 -437,-277 -761,-1713 -52,-2380zm432 -258l0 0c596,-700 1968,-463 2249,-63 -1131,383 -1369,922 -2249,63zm-1597 -598l0 0c955,883 397,1164 53,2379 -437,-276 -761,-1712 -53,-2379zm61 -894l0 0c864,-473 2145,289 2275,797 -1279,-49 -1724,399 -2275,-797zm-856 -333l0 0c755,1168 104,1311 -574,2479 -380,-402 -336,-1975 574,-2479zm-654 -1259l0 0c500,1265 -152,1277 -1027,2268 -287,-458 57,-1960 1027,-2268zm360 -335l0 0c1061,-219 2164,995 2136,1571 -1329,-464 -1941,-135 -2136,-1571z"/>
     <path class="fil0" d="M11948 17559c1023,297 985,-212 1692,-967 -354,-178 -1381,143 -1648,825 -33,111 -23,20 -44,142z"/>
    </g>
   </g>
   <path class="fil1" d="M18470 17268c-14,0 -27,-5 -37,-16 -10,-10 -16,-23 -16,-37l0 -268c0,-14 6,-26 16,-36 10,-11 23,-16 37,-16l749 0 29 -194 -778 0c-68,0 -126,24 -174,73 -49,48 -72,106 -72,173l0 268c0,68 23,126 72,174 48,49 106,73 174,73l576 0c14,0 26,5 37,16 10,10 15,22 15,36l0 355c0,15 -5,28 -15,38 -11,10 -23,15 -37,15l-747 0 -30 195 777 0c68,0 127,-25 175,-73 48,-48 73,-106 73,-175l0 -355c0,-69 -25,-126 -73,-175 -48,-47 -107,-71 -175,-71l-576 0zm2281 601c0,15 -5,28 -15,38 -11,10 -23,15 -36,15l-786 0c-15,0 -27,-5 -38,-15 -10,-10 -15,-23 -15,-38l0 -922c0,-14 5,-26 15,-36 11,-11 23,-16 38,-16l786 0c13,0 25,5 36,16 10,10 15,22 15,36l0 922zm-837 -1168c-68,0 -126,24 -175,73 -48,48 -72,106 -72,173l0 922c0,69 24,127 72,175 49,48 107,73 175,73l800 0 0 -2c64,-3 119,-28 164,-76 45,-47 67,-104 67,-170l0 -922c0,-67 -23,-125 -71,-173 -48,-49 -106,-73 -174,-73l-786 0zm1405 1416l194 0 0 -1857 -194 0 0 1857zm1522 -1416l0 1168c0,15 -5,28 -15,38 -10,10 -23,15 -38,15l-662 0c-15,0 -27,-5 -38,-15 -10,-10 -15,-23 -15,-38l0 -1168 -194 0 0 1168c0,69 24,127 72,175 48,48 107,73 175,73l662 0c68,0 127,-25 175,-73 48,-48 73,-106 73,-175l0 -1168 -195 0zm828 1221c-15,0 -27,-5 -38,-15 -10,-10 -15,-23 -15,-38l0 -973 327 0 30 -194 -357 0 0 -442 -194 0 0 1609c0,69 24,127 73,175 48,48 106,73 174,73l304 0 -44 -195 -260 0zm582 195l194 0 0 -1416 -194 0 0 1416zm1647 -248c0,15 -5,28 -15,38 -11,10 -23,15 -37,15l-785 0c-15,0 -27,-5 -38,-15 -10,-10 -15,-23 -15,-38l0 -922c0,-14 5,-26 15,-36 11,-11 23,-16 38,-16l785 0c14,0 26,5 37,16 10,10 15,22 15,36l0 922zm-837 -1168c-68,0 -127,24 -175,73 -48,48 -72,106 -72,173l0 922c0,69 24,127 72,175 48,48 107,73 175,73l799 0 0 -2c65,-3 120,-28 165,-76 44,-47 67,-104 67,-170l0 -922c0,-67 -23,-125 -71,-173 -48,-49 -107,-73 -175,-73l-785 0zm2603 16c-60,-30 -122,-22 -188,27l-816 604 0 -647 -194 0 0 1416 194 0 0 -527 898 -664 0 1191 194 0 0 -1235c0,-81 -30,-136 -88,-165zm709 551c-14,0 -27,-5 -37,-16 -10,-10 -16,-23 -16,-37l0 -268c0,-14 6,-26 16,-36 10,-11 23,-16 37,-16l749 0 29 -194 -778 0c-68,0 -126,24 -174,73 -49,48 -72,106 -72,173l0 268c0,68 23,126 72,174 48,49 106,73 174,73l576 0c14,0 26,5 37,16 10,10 15,22 15,36l0 355c0,15 -5,28 -15,38 -11,10 -23,15 -37,15l-747 0 -30 195 777 0c68,0 127,-25 175,-73 48,-48 73,-106 73,-175l0 -355c0,-69 -25,-126 -73,-175 -48,-47 -107,-71 -175,-71l-576 0z"/>
   <path class="fil0" d="M13493 13846l-5213 0c-95,0 -175,-32 -244,-101 -67,-66 -101,-147 -101,-245l0 -6009c0,-92 34,-170 101,-236 69,-69 149,-104 244,-104l5213 0 192 -1263 -5405 0c-443,0 -823,158 -1137,472 -313,313 -472,691 -472,1131l0 6009c0,447 159,827 472,1140 314,314 694,472 1137,472l5405 0 -192 -1266zm9256 1266l-6323 0c-541,0 -901,-195 -1079,-590 -176,-388 -84,-788 276,-1197l5396 -6122 -5082 0 -297 -1272 5811 0c538,0 895,196 1071,590 178,391 89,791 -271,1197l-5396 6128 5601 0 293 1266zm6448 -9224l-193 1263 -2389 0c-95,0 -176,35 -245,104 -66,66 -100,144 -100,236l0 7621 -1264 0 0 -7621c0,-440 158,-818 472,-1131 314,-314 694,-472 1137,-472l2582 0z"/>
  </g>
 </g>
</svg>
